Patient4_TMGait_0pt7_02_right_50_GRF.mot
version=1
nRows=72
nColumns=19
inDegrees=no
endheader
time	F1x	F1y	F1z	M1x	M1y	M1z	F2x	F2y	F2z	M2x	M2y	M2z	EC1x	EC1y	EC1z	EC2x	EC2y	EC2z
56.66	2.6143	722.4571	69.5028	-243.2101	-61.681	716.4512	-18.4098	-7.2973	-21.366	3.8442	17.973	3.1179	-0.0592	0.0182	-0.0073	-0.0462	0.0165	0.9585
56.672	6.2749	727.2397	64.0526	-244.267	-56.4636	718.3999	-12.4482	-4.1829	-14.6729	2.933	12.4193	3.0181	-0.0592	0.0182	-0.0073	-0.0462	0.0165	0.9585
56.684	10.0392	731.9529	59.4534	-245.3566	-51.7218	719.3653	-7.4401	-1.5111	-8.8983	2.1455	7.6308	2.9719	-0.0592	0.0182	-0.0073	-0.0462	0.0165	0.9585
56.696	13.771	735.9845	56.0084	-246.3006	-47.7149	718.877	-3.6299	0.54452	-4.4317	1.5415	3.927	2.9479	-0.0592	0.0182	-0.0073	-0.0462	0.0165	0.9585
56.708	17.4094	738.7645	53.7962	-246.8942	-44.5509	716.5865	-1.0352	2.0026	-1.315	1.1302	1.3566	2.9772	-0.0592	0.0182	-0.0073	-0.0462	0.0165	0.9585
56.72	20.9428	739.9161	52.6534	-246.975	-42.1453	712.3387	0.54729	2.9241	0.6306	0.88045	-0.23428	3.0161	-0.0592	0.0182	-0.0073	-0.0462	0.0165	0.9585
56.732	24.364	739.3242	52.4107	-246.4624	-40.4149	706.2292	1.3336	3.4155	1.6536	0.74636	-1.0449	3.0578	-0.0592	0.0182	-0.0073	-0.0462	0.0165	0.9585
56.744	27.6841	737.1872	52.8247	-245.3855	-39.2018	698.6408	1.581	3.5457	2.0316	0.66891	-1.3102	3.017	-0.0592	0.0182	-0.0073	-0.0462	0.0165	0.9585
56.756	30.8884	733.9714	53.7372	-243.8636	-38.4207	690.185	1.4814	3.354	1.9889	0.5868	-1.213	2.8209	-0.0592	0.0182	-0.0073	-0.0462	0.0165	0.9585
56.768	33.9711	730.2981	54.9825	-242.0765	-37.963	681.5557	1.204	2.842	1.7153	0.43982	-0.91862	2.3647	-0.0592	0.0182	-0.0073	-0.0462	0.0165	0.9585
56.78	36.9305	726.8676	56.4742	-240.2352	-37.7777	673.4806	0.8543	1.9741	1.334	0.16732	-0.53555	1.5278	-0.0592	0.0182	-0.0073	-0.0462	0.0165	0.9585
56.792	39.8042	724.3561	58.1469	-238.5499	-37.8127	666.6077	0.52097	0.68949	0.93823	-0.28578	-0.15608	0.19015	-0.0592	0.0182	-0.0073	-0.0462	0.0165	0.9585
56.804	42.6208	723.3367	59.9971	-237.2	-38.0663	661.4696	0.28836	-1.0662	0.58797	-0.95724	0.1478	-1.7409	-0.0592	0.0182	-0.0073	-0.0462	0.0165	0.9585
56.816	45.4513	724.1932	62.0458	-236.3078	-38.5407	658.3945	0.20878	-3.2809	0.3308	-1.8463	0.31253	-4.2558	-0.0592	0.0182	-0.0073	-0.0462	0.0165	0.9585
56.828	48.3167	727.0632	64.3492	-235.9151	-39.2754	657.487	0.36237	-5.8272	0.22177	-2.8928	0.25213	-7.2095	-0.0592	0.0182	-0.0073	-0.0462	0.0165	0.9585
56.84	51.2323	731.8029	66.9636	-235.9777	-40.3075	658.5799	0.79172	-8.3505	0.30255	-3.9366	-0.11042	-10.1741	-0.0592	0.0182	-0.0073	-0.0462	0.0165	0.9585
56.852	54.173	738.0249	69.9067	-236.3795	-41.6483	661.3117	1.5583	-10.2057	0.63776	-4.6861	-0.88498	-12.4009	-0.0592	0.0182	-0.0073	-0.0462	0.0165	0.9585
56.864	57.0993	745.0987	73.1214	-236.938	-43.2502	665.0939	2.6639	-10.325	1.287	-4.6764	-2.1569	-12.6225	-0.0592	0.0182	-0.0073	-0.0462	0.0165	0.9585
56.876	59.9052	752.2131	76.4587	-237.419	-45.0083	669.1947	4.1024	-7.2041	2.3277	-3.2541	-4.0113	-9.0661	-0.0592	0.0182	-0.0073	-0.0462	0.0165	0.9585
56.888	62.4897	758.3486	79.7172	-237.5368	-46.7776	672.6846	5.7343	1.1488	3.7864	0.42972	-6.4248	0.64425	-0.0592	0.0182	-0.0073	-0.0462	0.0165	0.9585
56.9	64.7153	762.3549	82.6561	-236.9772	-48.394	674.5464	7.3307	17.0356	5.6453	7.3534	-9.2572	19.2323	-0.0592	0.0182	-0.0073	-0.0462	0.0165	0.9585
56.912	66.5025	763.0441	84.9971	-235.4291	-49.6512	673.7174	8.411	42.7874	7.7505	18.4898	-12.108	49.5092	-0.0592	0.0182	-0.0073	-0.0462	0.0165	0.9585
56.924	67.8177	759.2135	86.4306	-232.5908	-50.3055	669.1269	8.2711	80.1204	9.7712	34.5389	-14.2635	93.5431	-0.0592	0.0182	-0.0073	-0.0462	0.0165	0.9585
56.936	68.6815	749.5801	86.6092	-228.1482	-50.0638	659.5921	5.7793	129.348	11.129	55.5719	-14.5562	151.7723	-0.0592	0.0182	-0.0073	-0.0462	0.0165	0.9585
56.948	69.1	732.7202	85.2126	-221.7464	-48.665	643.8195	-0.41259	188.2234	11.0936	80.5565	-11.545	221.6066	-0.0592	0.0182	-0.0073	-0.0462	0.0165	0.9585
56.96	69.045	707.1358	81.9684	-213.0021	-45.9022	620.4592	-10.6541	251.4108	8.6681	107.1368	-3.9706	296.775	-0.0592	0.0182	-0.0073	-0.0462	0.0165	0.9585
56.972	68.3641	671.4638	76.7818	-201.5447	-41.7599	588.3157	-23.1818	311.4494	3.3235	132.1288	7.9465	368.2824	-0.0592	0.0182	-0.0073	-0.0462	0.0165	0.9585
56.984	66.7798	624.8914	69.7649	-187.1301	-36.4287	546.7226	-35.4657	362.8144	-4.5777	153.2062	22.6314	429.2872	-0.0592	0.0182	-0.0073	-0.0462	0.0165	0.9585
56.996	63.9844	567.6663	61.313	-169.787	-30.3408	495.9814	-46.1156	405.0797	-14.0267	170.209	38.315	478.9902	-0.0592	0.0182	-0.0073	-0.0462	0.0165	0.9585
57.008	59.7671	501.315	52.0367	-149.8979	-24.061	437.5037	-54.6709	441.6199	-23.9188	184.5884	53.5564	521.271	-0.0592	0.0182	-0.0073	-0.0462	0.0165	0.9585
57.02	54.082	428.5071	42.6297	-128.1792	-18.1631	373.6447	-61.0246	476.2954	-33.2161	198.0547	67.1437	560.6605	-0.0592	0.0182	-0.0073	-0.0462	0.0165	0.9585
57.032	47.0253	352.7529	33.6524	-105.6106	-13.0543	307.47	-65.3254	511.9385	-41.1728	211.863	78.293	600.507	-0.0592	0.0182	-0.0073	-0.0462	0.0165	0.9585
57.044	38.88	278.0041	25.5421	-83.3281	-8.9893	242.3743	-67.7708	549.57	-47.4644	226.497	86.7149	641.9964	-0.0592	0.0182	-0.0073	-0.0462	0.0165	0.9585
57.056	30.1483	208.298	18.5503	-62.5164	-6.0092	181.8173	-68.7253	588.9401	-52.228	241.8585	92.6965	684.9	-0.0592	0.0182	-0.0073	-0.0462	0.0165	0.9585
57.068	21.6356	147.0567	12.7974	-44.2004	-3.9666	128.6748	-68.522	628.9035	-55.8983	257.4341	96.8609	727.9826	-0.0592	0.0182	-0.0073	-0.0462	0.0165	0.9585
57.08	14.1287	96.4788	8.2682	-29.0524	-2.5976	84.7867	-67.5683	667.4079	-58.9949	272.321	99.9438	769.0474	-0.0592	0.0182	-0.0073	-0.0462	0.0165	0.9585
57.092	8.1609	57.2192	4.8836	-17.284	-1.6736	50.6633	-66.3184	701.9946	-61.8644	285.4673	102.5071	805.4424	-0.0592	0.0182	-0.0073	-0.0462	0.0165	0.9585
57.104	3.7953	28.7536	2.4694	-8.7466	-1.0285	25.8691	-65.1157	730.842	-64.5577	296.1002	104.7552	835.2078	-0.0592	0.0182	-0.0073	-0.0462	0.0165	0.9585
57.116	0.90053	9.7678	0.85991	-3.0502	-0.57394	9.271	-64.1112	753.1616	-66.9563	303.9038	106.6322	857.5136	-0.0592	0.0182	-0.0073	-0.0462	0.0165	0.9585
57.128	-0.78799	-1.5187	-0.11517	0.33913	-0.26013	-0.62565	-63.3394	768.9908	-68.8932	308.9172	107.9845	872.4243	-0.0592	0.0182	-0.0073	-0.0462	0.0165	0.9585
57.14	-1.5622	-7.0919	-0.61485	2.0144	-0.056987	-5.5471	-62.7218	778.836	-70.2743	311.3788	108.6913	880.4945	-0.0592	0.0182	-0.0073	-0.0462	0.0165	0.9585
57.152	-1.7571	-8.7904	-0.77484	2.527	0.04007	-7.0651	-62.1413	783.361	-71.0465	311.6084	108.6619	882.4675	-0.0592	0.0182	-0.0073	-0.0462	0.0165	0.9585
57.164	-1.5944	-8.1698	-0.73607	2.3409	0.076508	-6.5449	-61.4717	783.3562	-71.235	309.9797	107.8919	879.2337	-0.0592	0.0182	-0.0073	-0.0462	0.0165	0.9585
57.176	-1.2785	-6.3731	-0.57795	1.8024	0.053619	-4.9703	-60.6401	779.7384	-70.8869	306.9197	106.4298	871.8062	-0.0592	0.0182	-0.0073	-0.0462	0.0165	0.9585
57.188	-0.9157	-4.183	-0.38757	1.1489	0.01088	-3.0516	-59.6418	773.5119	-70.1421	302.8895	104.4422	861.2873	-0.0592	0.0182	-0.0073	-0.0462	0.0165	0.9585
57.2	-0.59176	-2.0842	-0.19603	0.52953	-0.051033	-1.2045	-58.4815	765.7417	-69.1223	298.3666	102.0871	848.8312	-0.0592	0.0182	-0.0073	-0.0462	0.0165	0.9585
57.212	-0.32541	-0.32633	-0.04403	0.018816	-0.10122	0.32374	-57.2028	757.4264	-67.9705	293.7966	99.5455	835.5136	-0.0592	0.0182	-0.0073	-0.0462	0.0165	0.9585
57.224	-0.1451	1.0028	0.076105	-0.35778	-0.15285	1.4608	-55.816	749.4403	-66.7442	289.5681	96.898	822.2634	-0.0592	0.0182	-0.0073	-0.0462	0.0165	0.9585
57.236	-0.026017	1.9168	0.15217	-0.61088	-0.18799	2.2146	-54.2856	742.4446	-65.471	285.9689	94.1761	809.788	-0.0592	0.0182	-0.0073	-0.0462	0.0165	0.9585
57.248	0.028559	2.4929	0.20519	-0.76863	-0.22687	2.6693	-52.5646	736.7819	-64.0781	283.1519	91.3027	798.4507	-0.0592	0.0182	-0.0073	-0.0462	0.0165	0.9585
57.26	0.041589	2.7934	0.23213	-0.85585	-0.25859	2.8882	-50.5713	732.5354	-62.5024	281.1451	88.1875	788.3242	-0.0592	0.0182	-0.0073	-0.0462	0.0165	0.9585
57.272	0.023619	2.901	0.25167	-0.89786	-0.29177	2.9556	-48.1697	729.5828	-60.6951	279.8778	84.7232	779.2568	-0.0592	0.0182	-0.0073	-0.0462	0.0165	0.9585
57.284	-0.0082743	2.8927	0.25656	-0.91502	-0.31175	2.9305	-45.2096	727.6982	-58.682	279.2248	80.8621	770.9906	-0.0592	0.0182	-0.0073	-0.0462	0.0165	0.9585
57.296	-0.052548	2.8297	0.25704	-0.9202	-0.32694	2.8594	-41.5506	726.7034	-56.5212	279.0693	76.5931	763.3204	-0.0592	0.0182	-0.0073	-0.0462	0.0165	0.9585
57.308	-0.10354	2.7645	0.24843	-0.92442	-0.33391	2.7936	-37.1278	726.5272	-54.3026	279.3324	71.9761	756.1921	-0.0592	0.0182	-0.0073	-0.0462	0.0165	0.9585
57.32	-0.16516	2.7102	0.24184	-0.92783	-0.34613	2.7514	-32.0187	727.2343	-52.1382	279.9849	67.153	749.7497	-0.0592	0.0182	-0.0073	-0.0462	0.0165	0.9585
57.332	-0.24864	2.6623	0.23274	-0.92407	-0.36422	2.7317	-26.4228	728.9064	-50.1956	281.0015	62.3732	744.1826	-0.0592	0.0182	-0.0073	-0.0462	0.0165	0.9585
57.344	-0.35493	2.5576	0.23097	-0.88921	-0.39985	2.6628	-20.628	731.4895	-48.6644	282.3098	57.9372	739.5626	-0.0592	0.0182	-0.0073	-0.0462	0.0165	0.9585
57.356	-0.49542	2.3238	0.22844	-0.79651	-0.45353	2.4562	-14.8821	734.7203	-47.7155	283.7663	54.1064	735.7211	-0.0592	0.0182	-0.0073	-0.0462	0.0165	0.9585
57.368	-0.66571	1.8402	0.24011	-0.6062	-0.53836	1.9603	-9.3322	738.1859	-47.4488	285.1839	51.0301	732.3101	-0.0592	0.0182	-0.0073	-0.0462	0.0165	0.9585
57.38	-0.86104	1.0009	0.25901	-0.28267	-0.64092	1.0554	-4.024	741.4809	-47.8401	286.4043	48.7	728.9422	-0.0592	0.0182	-0.0073	-0.0462	0.0165	0.9585
57.392	-1.0454	-0.30007	0.29311	0.21069	-0.75044	-0.40411	1.0635	744.3608	-48.7826	287.3474	47.0056	725.3675	-0.0592	0.0182	-0.0073	-0.0462	0.0165	0.9585
57.404	-1.1814	-2.1136	0.32311	0.89014	-0.83084	-2.4793	5.964	746.6496	-50.1213	287.9763	45.7827	721.3826	-0.0592	0.0182	-0.0073	-0.0462	0.0165	0.9585
57.416	-1.1689	-4.4033	0.3407	1.7387	-0.83575	-5.1321	10.6807	748.1893	-51.7088	288.2678	44.8832	716.8069	-0.0592	0.0182	-0.0073	-0.0462	0.0165	0.9585
57.428	-0.89395	-6.9632	0.31033	2.6789	-0.6816	-8.1031	15.2274	748.8225	-53.4256	288.1974	44.1841	711.4693	-0.0592	0.0182	-0.0073	-0.0462	0.0165	0.9585
57.44	-0.17147	-9.3534	0.19535	3.545	-0.26221	-10.8897	19.5903	748.331	-55.1952	287.7155	43.6088	705.142	-0.0592	0.0182	-0.0073	-0.0462	0.0165	0.9585
57.452	1.1979	-10.7723	-0.049032	4.0433	0.54131	-12.5641	23.7709	746.4796	-56.9588	286.7588	43.0941	697.6016	-0.0592	0.0182	-0.0073	-0.0462	0.0165	0.9585
57.464	3.4251	-10.027	-0.47168	3.7347	1.8627	-11.7637	27.7553	743.0555	-58.6745	285.2657	42.6038	688.6688	-0.0592	0.0182	-0.0073	-0.0462	0.0165	0.9585
57.476	6.6536	-5.4221	-1.1251	2.0052	3.8144	-6.5366	31.5108	737.9318	-60.2664	283.2027	42.084	678.2607	-0.0592	0.0182	-0.0073	-0.0462	0.0165	0.9585
57.488	10.903	5.1522	-2.0411	-1.9129	6.4386	5.5491	34.9871	731.146	-61.6512	280.593	41.493	666.4685	-0.0592	0.0182	-0.0073	-0.0462	0.0165	0.9585
57.5	15.9227	24.0632	-3.2113	-8.8772	9.6281	27.2478	38.1061	722.8781	-62.6933	277.5087	40.7538	653.5392	-0.0592	0.0182	-0.0073	-0.0462	0.0165	0.9585
57.512	21.0632	53.5162	-4.538	-19.6825	13.0287	61.1235	40.7881	713.2615	-63.2377	273.9966	39.7766	639.6991	-0.0592	0.0182	-0.0073	-0.0462	0.0165	0.9585
